<svg width="30" height="30" viewBox="0 0 30 30" fill="none" xmlns="http://www.w3.org/2000/svg">
<path d="M15.004 0C10.7182 0 7.21484 3.50339 7.21484 7.78913C7.21484 12.0749 10.7182 15.5783 15.004 15.5783C19.2897 15.5783 22.7931 12.0749 22.7931 7.78913C22.7931 3.50339 19.2897 0 15.004 0Z" fill="white"/>
<path d="M28.3705 21.803C28.1664 21.2928 27.8943 20.8166 27.5882 20.3744C26.0235 18.0615 23.6086 16.5309 20.8875 16.1567C20.5474 16.1228 20.1733 16.1907 19.9011 16.3948C18.4725 17.4492 16.7719 17.9935 15.0031 17.9935C13.2344 17.9935 11.5337 17.4492 10.1052 16.3948C9.83303 16.1907 9.45887 16.0887 9.11877 16.1567C6.39767 16.5309 3.94872 18.0615 2.41812 20.3744C2.112 20.8166 1.83986 21.3269 1.63583 21.803C1.53381 22.0071 1.56779 22.2452 1.66981 22.4493C1.94194 22.9255 2.28205 23.4017 2.58817 23.8099C3.06434 24.4561 3.57456 25.0343 4.15282 25.5785C4.62899 26.0547 5.1732 26.4969 5.71747 26.9391C8.40451 28.9459 11.6358 30.0003 14.9692 30.0003C18.3025 30.0003 21.5338 28.9459 24.2209 26.9391C24.7651 26.5309 25.3093 26.0547 25.7855 25.5785C26.3297 25.0343 26.8739 24.4561 27.3501 23.8099C27.6903 23.3677 27.9964 22.9255 28.2685 22.4493C28.4385 22.2452 28.4725 22.0071 28.3705 21.803Z" fill="white"/>
</svg>
