<svg width="30" height="30" viewBox="0 0 30 30" fill="none" xmlns="http://www.w3.org/2000/svg">
<g clip-path="url(#clip0)">
<path d="M0.708281 10.4348C0.248789 11.8743 -5.85834e-05 13.4079 1.0345e-08 14.9998C-5.85834e-05 16.5918 0.248848 18.1255 0.70834 19.5651L15 20.2173L29.2917 19.5652C29.7511 18.1256 30.0001 16.5918 30.0001 15C30 13.408 29.7512 11.8743 29.2917 10.4347L15 9.78259L0.708281 10.4348Z" fill="#F0F0F0"/>
<path d="M29.2905 10.4349L14.9989 9.78271L0.707148 10.4349C0.570977 10.8617 0.45373 11.2968 0.355469 11.7392H29.642C29.5439 11.2968 29.4267 10.8615 29.2905 10.4349Z" fill="#D80027"/>
<path d="M0.355469 18.2607C0.453613 18.7031 0.570859 19.1382 0.707031 19.565L0.708438 19.5651L14.9986 20.2172L29.2903 19.5651C29.4265 19.1383 29.5437 18.7031 29.6419 18.2607H0.355469Z" fill="#D80027"/>
<path d="M14.9986 29.9998C21.691 29.9998 27.3587 25.6169 29.2903 19.5651H0.707031C2.63857 25.6168 8.30646 29.9998 14.9986 29.9998Z" fill="#6DA544"/>
<path d="M14.9987 0.000610352C8.30646 0.000668946 2.63869 4.38366 0.707031 10.4354L29.2903 10.4355C27.3589 4.3836 21.691 0.000551758 14.9987 0.000610352Z" fill="#338AF3"/>
<path d="M6.85543 6.19571C6.85543 4.79081 7.84279 3.61718 9.16132 3.32925C8.95871 3.28495 8.74841 3.26099 8.53244 3.26099C6.91162 3.26099 5.59766 4.57489 5.59766 6.19577C5.59766 7.81665 6.9115 9.13055 8.53244 9.13055C8.74841 9.13055 8.95865 9.10653 9.16132 9.06229C7.84285 8.77424 6.85543 7.60061 6.85543 6.19571Z" fill="#F0F0F0"/>
<path d="M10.8963 7.52966L11.095 8.14109H11.7379L11.2178 8.51902L11.4164 9.13045L10.8963 8.75257L10.3761 9.13045L10.5748 8.51902L10.0547 8.14109H10.6976L10.8963 7.52966Z" fill="#F0F0F0"/>
<path d="M12.947 7.52966L13.1457 8.14109H13.7886L13.2684 8.51902L13.4671 9.13045L12.947 8.75257L12.4269 9.13045L12.6255 8.51902L12.1055 8.14109H12.7483L12.947 7.52966Z" fill="#F0F0F0"/>
<path d="M14.9979 7.52966L15.1965 8.14109H15.8395L15.3193 8.51902L15.518 9.13045L14.9979 8.75257L14.4777 9.13045L14.6764 8.51902L14.1562 8.14109H14.7992L14.9979 7.52966Z" fill="#F0F0F0"/>
<path d="M17.0526 7.52966L17.2513 8.14109H17.8941L17.374 8.51902L17.5727 9.13045L17.0526 8.75257L16.5324 9.13045L16.7311 8.51902L16.2109 8.14109H16.8538L17.0526 7.52966Z" fill="#F0F0F0"/>
<path d="M19.1032 7.52966L19.3019 8.14109H19.9448L19.4247 8.51902L19.6234 9.13045L19.1032 8.75257L18.5831 9.13045L18.7818 8.51902L18.2617 8.14109H18.9046L19.1032 7.52966Z" fill="#F0F0F0"/>
<path d="M12.947 5.39514L13.1457 6.00651H13.7886L13.2684 6.3845L13.4671 6.99586L12.947 6.61799L12.4269 6.99586L12.6255 6.3845L12.1055 6.00651H12.7483L12.947 5.39514Z" fill="#F0F0F0"/>
<path d="M14.9979 5.39514L15.1965 6.00651H15.8395L15.3193 6.3845L15.518 6.99586L14.9979 6.61799L14.4777 6.99586L14.6764 6.3845L14.1562 6.00651H14.7992L14.9979 5.39514Z" fill="#F0F0F0"/>
<path d="M17.0526 5.39514L17.2513 6.00651H17.8941L17.374 6.3845L17.5727 6.99586L17.0526 6.61799L16.5324 6.99586L16.7311 6.3845L16.2109 6.00651H16.8538L17.0526 5.39514Z" fill="#F0F0F0"/>
<path d="M19.1032 5.39514L19.3019 6.00651H19.9448L19.4247 6.3845L19.6234 6.99586L19.1032 6.61799L18.5831 6.99586L18.7818 6.3845L18.2617 6.00651H18.9046L19.1032 5.39514Z" fill="#F0F0F0"/>
<path d="M14.9979 3.26074L15.1965 3.87223H15.8395L15.3193 4.2501L15.518 4.86158L14.9979 4.48371L14.4777 4.86158L14.6764 4.2501L14.1562 3.87223H14.7992L14.9979 3.26074Z" fill="#F0F0F0"/>
<path d="M17.0526 3.26074L17.2513 3.87223H17.8941L17.374 4.2501L17.5727 4.86158L17.0526 4.48371L16.5324 4.86158L16.7311 4.2501L16.2109 3.87223H16.8538L17.0526 3.26074Z" fill="#F0F0F0"/>
<path d="M19.1032 3.26074L19.3019 3.87223H19.9448L19.4247 4.2501L19.6234 4.86158L19.1032 4.48371L18.5831 4.86158L18.7818 4.2501L18.2617 3.87223H18.9046L19.1032 3.26074Z" fill="#F0F0F0"/>
</g>
<defs>
<clipPath id="clip0">
<rect width="30" height="30" fill="white"/>
</clipPath>
</defs>
</svg>
