<svg width="30" height="30" viewBox="0 0 30 30" fill="none" xmlns="http://www.w3.org/2000/svg">
    <path d="M15 30C23.2843 30 30 23.2843 30 15C30 6.71573 23.2843 0 15 0C6.71573 0 0 6.71573 0 15C0 23.2843 6.71573 30 15 30Z"
          fill="#F0F0F0"/>
    <path d="M3.09967 5.86768C1.92141 7.40066 1.03295 9.16756 0.515625 11.087H8.31902L3.09967 5.86768Z" fill="#0052B4"/>
    <path d="M29.4791 11.0871C28.9617 9.16768 28.0732 7.40079 26.895 5.8678L21.6758 11.0871H29.4791Z" fill="#0052B4"/>
    <path d="M0.515625 18.9131C1.03301 20.8325 1.92146 22.5994 3.09967 24.1323L8.31885 18.9131H0.515625Z"
          fill="#0052B4"/>
    <path d="M24.1295 3.10083C22.5965 1.92256 20.8296 1.03411 18.9102 0.516724V8.32006L24.1295 3.10083Z"
          fill="#0052B4"/>
    <path d="M5.86719 26.8991C7.40018 28.0774 9.16707 28.9658 11.0865 29.4832V21.6799L5.86719 26.8991Z" fill="#0052B4"/>
    <path d="M11.0864 0.516724C9.16701 1.03411 7.40012 1.92256 5.86719 3.10077L11.0864 8.32V0.516724Z" fill="#0052B4"/>
    <path d="M18.9102 29.4832C20.8296 28.9658 22.5965 28.0774 24.1294 26.8992L18.9102 21.6799V29.4832Z" fill="#0052B4"/>
    <path d="M21.6758 18.9131L26.895 24.1324C28.0732 22.5995 28.9617 20.8325 29.4791 18.9131H21.6758Z" fill="#0052B4"/>
    <path d="M29.873 13.0435H16.9566H16.9566V0.126973C16.3161 0.0435938 15.6631 0 15 0C14.3368 0 13.6839 0.0435938 13.0435 0.126973V13.0434V13.0434H0.126973C0.0435938 13.6839 0 14.3369 0 15C0 15.6632 0.0435938 16.3161 0.126973 16.9565H13.0434H13.0434V29.873C13.6839 29.9564 14.3368 30 15 30C15.6631 30 16.3161 29.9565 16.9565 29.873V16.9566V16.9566H29.873C29.9564 16.3161 30 15.6632 30 15C30 14.3369 29.9564 13.6839 29.873 13.0435Z"
          fill="#D80027"/>
    <path d="M18.9141 18.9131L25.6076 25.6067C25.9154 25.2989 26.2091 24.9772 26.4893 24.6437L20.7587 18.9131H18.9141V18.9131Z"
          fill="#D80027"/>
    <path d="M11.0881 18.9132H11.088L4.39453 25.6067C4.70227 25.9145 5.024 26.2082 5.35752 26.4884L11.0881 20.7577V18.9132Z"
          fill="#D80027"/>
    <path d="M11.087 11.0871V11.087L4.39344 4.39343C4.08559 4.70117 3.79191 5.02291 3.51172 5.35642L9.24236 11.0871H11.087V11.0871Z"
          fill="#D80027"/>
    <path d="M18.9141 11.0871L25.6076 4.3935C25.2999 4.08565 24.9782 3.79198 24.6446 3.51184L18.9141 9.24249V11.0871Z"
          fill="#D80027"/>
</svg>
