<svg width="30" height="30" viewBox="0 0 30 30" fill="none" xmlns="http://www.w3.org/2000/svg">
    <g opacity="0.5">
        <path d="M23.6592 13.418L22.3412 11.918C21.9771 11.504 21.3472 11.464 20.9312 11.826L17.0012 15.27V1C17.0012 0.448 16.5532 0 16.0012 0H14.0012C13.4492 0 13.0012 0.448 13.0012 1V15.27L9.07115 11.826C8.65715 11.464 8.02715 11.504 7.66115 11.918L6.34315 13.416C5.97715 13.832 6.01915 14.466 6.43515 14.83L14.3432 21.752C14.7212 22.082 15.2831 22.082 15.6611 21.752L23.5672 14.83C23.9832 14.466 24.0252 13.832 23.6592 13.418Z"
              fill="black"/>
        <path d="M26 26H4C3.448 26 3 26.448 3 27V29C3 29.552 3.448 30 4 30H26C26.552 30 27 29.552 27 29V27C27 26.448 26.552 26 26 26Z"
              fill="black"/>
    </g>
</svg>
